<?xml version="1.0" encoding="UTF-8" standalone="no"?>
<svg width="210px" height="60px" viewBox="0 0 210 60" version="1.1" xmlns="http://www.w3.org/2000/svg" xmlns:xlink="http://www.w3.org/1999/xlink" xmlns:sketch="http://www.bohemiancoding.com/sketch/ns">
    <!-- Generator: Sketch 3.2.2 (9983) - http://www.bohemiancoding.com/sketch -->
    <title>logo</title>
    <desc>Created with Sketch.</desc>
    <defs></defs>
    <g id="Page" stroke="none" stroke-width="1" fill="none" fill-rule="evenodd" sketch:type="MSPage">
        <g id="logo" sketch:type="MSArtboardGroup">
            <g sketch:type="MSLayerGroup" transform="translate(4.000000, 3.000000)">
                <path d="M3.99792562,7.51 C3.16243802,8.31666667 2.60041322,9.01166667 1.78170248,9.97833333 C1.72633884,10.0383333 1.62735537,10.1416667 1.55689256,10.1816667 C1.27839669,10.3516667 0.916016529,10.3816667 0.595578512,10.2283333 C0.115760331,9.99666667 -0.119115702,9.41666667 0.0603966942,8.93166667 C0.206355372,8.525 0.441231405,8.19666667 0.714694215,7.86833333 C1.23477686,7.24 1.83706612,6.635 2.41586777,6.04833333 C5.0397686,3.39166667 8.01766116,1.65 11.0341405,1.23 C14.1579917,0.801666667 18.1039091,1.47166667 21.2109835,3.88333333 C23.0228843,5.29333333 24.7727107,7.35333333 25.7843554,9.00666667 C24.8079421,10.595 23.6906033,11.9683333 22.4558264,13.0566667 C21.2546033,14.1033333 19.952719,14.9 18.5602397,15.3766667 C15.6075124,16.3966667 12.5507686,16.1966667 10.7220909,14.02 C10.4805041,13.73 10.2842149,13.4016667 10.1399339,13.0566667 C9.75406612,12.1316667 9.72386777,11.0583333 10.1030248,10.1166667 C10.5895537,8.90166667 11.8629174,8.105 13.1446694,8.09 C14.2083223,8.04333333 15.2736529,8.59333333 15.7132066,9.57333333 C15.9497603,10.1633333 15.9564711,11.0033333 15.5303388,11.5116667 C15.2602314,11.81 14.7703471,11.9233333 14.4364876,11.8033333 C14.1848347,11.7116667 13.8996281,11.5433333 13.8996281,11.0116667 C13.8996281,10.56 13.713405,10.28 13.4466529,10.1766667 C13.1010496,10.0333333 12.6749174,10.045 12.4048099,10.3166667 C11.9820331,10.7416667 11.9082149,11.4133333 12.0709504,11.9783333 C12.1917438,12.405 12.473595,12.77 12.8376529,13.0566667 C13.3308926,13.435 13.980157,13.6583333 14.5941901,13.6733333 C15.3206281,13.7183333 16.0017686,13.4866667 16.5520496,13.0566667 C16.8154463,12.8416667 17.0469669,12.5883333 17.2432562,12.2883333 C17.8539339,11.2716667 17.8539339,9.7 17.281843,8.66333333 C16.474876,7.035 14.7770579,6.28833333 13.0339421,6.28166667 C10.8747603,6.23666667 8.85147107,7.615 7.92203306,9.59 C7.14861983,11.2216667 6.81643802,13.7916667 7.98242975,16.225 C8.88334711,18.115 10.5895537,19.4466667 11.9988099,20.13 C13.0943388,20.6666667 14.0489421,20.895 15.2468099,21.1516667 C15.3306942,21.1716667 15.459876,21.22 15.5269835,21.26 C15.802124,21.44 15.9883471,21.7483333 15.9883471,22.1066667 C15.9883471,22.635 15.5571818,23.0933333 15.0421322,23.145 C14.6109669,23.19 14.1093388,23.09 13.691595,22.9916667 C10.6801488,22.295 7.70393388,20.32 6.15710744,17.3833333 C4.44419008,14.1216667 4.84347934,10.1333333 6.70738843,7.51333333 C7.96565289,5.745 9.78426446,4.77166667 11.394843,4.40333333 C15.9698926,3.35333333 20.4543471,6.57833333 19.7614628,11.1333333 C19.6557686,11.8216667 19.4175372,12.51 18.9628843,13.0566667 C18.8773223,13.1516667 18.7867273,13.2483333 18.6860661,13.3416667 C18.8387355,13.2483333 18.9930826,13.1516667 19.1524628,13.0566667 C20.7143884,12.0416667 22.2947686,10.5566667 23.2476942,9.00666667 C22.3350331,7.93333333 21.2260826,6.61166667 20.1037107,5.73 C17.6425455,3.795 14.7669917,2.82166667 11.5911322,3.26666667 C8.12167769,3.75666667 5.96249587,5.59333333 3.99792562,7.51" id="Fill-1" fill="#08417A" sketch:type="MSShapeGroup"></path>
                <path d="M162.671785,13.42 L159.309702,5.42666667 C159.222463,5.24 159.182198,5.075 159.182198,4.92666667 C159.182198,4.71333333 159.309702,4.56333333 159.564711,4.48 L159.564711,4.24833333 L156.429116,4.24833333 L156.429116,4.48 C156.684124,4.58 156.80324,4.75166667 156.80324,4.97833333 C156.80324,5.13166667 156.754587,5.335 156.655603,5.58666667 L153.400893,13.5583333 C153.291843,13.85 153.186149,14.05 153.095554,14.1483333 C153.008314,14.2516667 152.869066,14.3233333 152.704653,14.3616667 L152.704653,14.58 L155.643959,14.58 L155.643959,14.3616667 C155.347008,14.275 155.211116,14.1216667 155.211116,13.8916667 C155.211116,13.7766667 155.249702,13.61 155.328554,13.4083333 L155.939231,11.9283333 L159.890182,11.9283333 L160.509248,13.4083333 C160.598165,13.6166667 160.648496,13.7766667 160.648496,13.8866667 C160.648496,14.1466667 160.50086,14.3066667 160.213975,14.3616667 L160.213975,14.58 L163.488818,14.58 L163.488818,14.3616667 C163.300917,14.3233333 163.153281,14.2383333 163.045909,14.115 C162.938537,13.99 162.819421,13.7583333 162.671785,13.42 L162.671785,13.42 Z M156.507967,10.5216667 L157.932322,6.88166667 L159.339901,10.5216667 L156.507967,10.5216667 L156.507967,10.5216667 Z M40.7342149,4.48 C40.8852066,4.52833333 40.9909008,4.59666667 41.0462645,4.68 C41.1083388,4.76 41.1402149,4.875 41.1402149,5.025 L41.1402149,13.8066667 C41.1402149,13.9616667 41.1083388,14.0816667 41.0462645,14.165 C40.9909008,14.245 40.8852066,14.3133333 40.7342149,14.3616667 L40.7342149,14.58 L43.473876,14.58 L43.473876,14.3616667 C43.3262397,14.3133333 43.2205455,14.2516667 43.1618264,14.165 C43.0997521,14.0816667 43.0695537,13.9616667 43.0695537,13.8066667 L43.0695537,5.025 C43.0695537,4.875 43.0980744,4.75666667 43.1584711,4.67333333 C43.2155124,4.59 43.3212066,4.52666667 43.473876,4.48 L43.473876,4.26666667 L40.7342149,4.26666667 L40.7342149,4.48 L40.7342149,4.48 Z M31.0740992,6.42666667 L31.2754215,6.42666667 C31.3190413,6.24 31.374405,6.11333333 31.4431901,6.04333333 C31.5136529,5.97666667 31.6126364,5.94166667 31.7434959,5.94166667 L34.5066446,5.94166667 L34.5066446,13.8066667 C34.5066446,13.9616667 34.4730909,14.0816667 34.4160496,14.165 C34.3573306,14.245 34.253314,14.3133333 34.1006446,14.3616667 L34.1006446,14.58 L36.8403058,14.58 L36.8403058,14.3616667 C36.689314,14.3133333 36.5836198,14.245 36.5249008,14.165 C36.4645041,14.0816667 36.4359835,13.9616667 36.4359835,13.8066667 L36.4359835,5.94166667 L39.1907438,5.94166667 C39.323281,5.94166667 39.4289752,5.97666667 39.4960826,6.04333333 C39.5665455,6.11333333 39.6235868,6.24 39.6672066,6.42666667 L39.8651736,6.42666667 L39.8651736,4.26666667 L31.0740992,4.26666667 L31.0740992,6.42666667 L31.0740992,6.42666667 Z M172.12219,9.15 C172.917413,8.71166667 173.320058,7.98166667 173.320058,6.98 C173.320058,6.08 173.054983,5.39 172.534901,4.915 C172.269826,4.67333333 171.964488,4.5 171.610496,4.40166667 C171.26657,4.30166667 170.803529,4.24833333 170.22305,4.24833333 L164.237066,4.24833333 L164.237066,4.48 C164.383025,4.52833333 164.492074,4.59666667 164.552471,4.68 C164.609512,4.76 164.638033,4.88 164.638033,5.035 L164.638033,13.8066667 C164.638033,13.9616667 164.609512,14.0816667 164.552471,14.165 C164.492074,14.245 164.383025,14.3133333 164.237066,14.3616667 L164.237066,14.58 L170.645826,14.58 C171.058537,14.5566667 171.412529,14.505 171.717868,14.4133333 C172.102058,14.2933333 172.445983,14.0983333 172.739579,13.83 C173.320058,13.2933333 173.605264,12.5483333 173.605264,11.5983333 C173.605264,10.4066667 173.113702,9.59 172.12219,9.15 L172.12219,9.15 Z M166.567372,5.94166667 L169.968041,5.94166667 C170.479736,5.94166667 170.843793,6.03166667 171.058537,6.215 C171.276636,6.39833333 171.384008,6.70833333 171.384008,7.14166667 C171.384008,7.565 171.276636,7.87833333 171.040083,8.08 C170.835405,8.25833333 170.479736,8.34666667 169.968041,8.34666667 L166.567372,8.34666667 L166.567372,5.94166667 L166.567372,5.94166667 Z M171.187719,12.6016667 C170.912579,12.8 170.479736,12.8983333 169.860669,12.8983333 L166.567372,12.8983333 L166.567372,10.0366667 L169.860669,10.0366667 C170.479736,10.0366667 170.922645,10.135 171.187719,10.3383333 C171.49138,10.5733333 171.65076,10.95 171.65076,11.4683333 C171.65076,11.9916667 171.49138,12.37 171.187719,12.6016667 L171.187719,12.6016667 Z M192.80638,12.415 C192.769471,12.595 192.710752,12.7216667 192.641967,12.7933333 C192.571504,12.865 192.474198,12.8983333 192.346694,12.8983333 L186.634174,12.8983333 L186.634174,10.0366667 L190.231132,10.0366667 C190.37038,10.0366667 190.469364,10.0733333 190.536471,10.1466667 C190.605256,10.2216667 190.655587,10.3483333 190.702562,10.5216667 L190.910595,10.5216667 L190.910595,7.91666667 L190.702562,7.91666667 C190.655587,8.09833333 190.605256,8.22666667 190.536471,8.295 C190.469364,8.36833333 190.37038,8.40166667 190.231132,8.40166667 L186.634174,8.40166667 L186.634174,5.94166667 L192.19738,5.94166667 C192.326562,5.94166667 192.425545,5.97666667 192.494331,6.05166667 C192.563116,6.12 192.620157,6.24666667 192.660421,6.42666667 L192.866777,6.42666667 L192.866777,4.24333333 L192.227579,4.24333333 C192.217512,4.24666667 192.209124,4.24833333 192.19738,4.24833333 L184.30219,4.24833333 L184.30219,4.48 C184.451504,4.52833333 184.557198,4.59666667 184.619273,4.68 C184.676314,4.76 184.706512,4.88 184.706512,5.035 L184.706512,13.8066667 C184.706512,13.9616667 184.676314,14.0816667 184.619273,14.165 C184.557198,14.245 184.451504,14.3133333 184.30219,14.3616667 L184.30219,14.58 L193.014413,14.58 L193.014413,12.415 L192.80638,12.415 L192.80638,12.415 Z M182.995273,12.7933333 C182.928165,12.865 182.829182,12.8983333 182.689934,12.8983333 L177.255909,12.8983333 L177.255909,5.035 C177.255909,4.88 177.282752,4.75666667 177.341471,4.67333333 C177.401868,4.59 177.50924,4.52666667 177.665264,4.48 L177.665264,4.24833333 L174.922248,4.24833333 L174.922248,4.48 C175.069884,4.52833333 175.180612,4.59666667 175.237653,4.68 C175.296372,4.76 175.32657,4.88 175.32657,5.035 L175.32657,13.8066667 C175.32657,13.9616667 175.296372,14.0816667 175.237653,14.165 C175.180612,14.245 175.069884,14.3133333 174.922248,14.3616667 L174.922248,14.58 L183.367719,14.58 L183.367719,12.415 L183.173107,12.415 C183.122777,12.595 183.074124,12.7216667 182.995273,12.7933333 L182.995273,12.7933333 Z M151.070587,7.81166667 L152.308719,5.655 L152.142628,5.51666667 C152.015124,5.64833333 151.91614,5.71666667 151.838967,5.71666667 C151.760116,5.71666667 151.543694,5.595 151.188025,5.35666667 C150.431388,4.85 149.803934,4.50833333 149.300628,4.33666667 C148.799,4.16333333 148.200066,4.07833333 147.49376,4.07833333 C145.584554,4.07833333 144.158521,4.76833333 143.215661,6.155 C142.584851,7.08 142.271124,8.165 142.271124,9.41666667 C142.271124,10.335 142.447281,11.175 142.80295,11.9366667 C143.096545,12.6016667 143.521,13.1566667 144.041083,13.6083333 C144.945355,14.3783333 146.086182,14.765 147.482017,14.765 C148.191678,14.765 148.788934,14.6783333 149.300628,14.5016667 C149.812322,14.3333333 150.439777,13.9966667 151.188025,13.5033333 C151.543694,13.2583333 151.760116,13.1416667 151.838967,13.1416667 C151.91614,13.1416667 152.015124,13.2066667 152.142628,13.3333333 L152.308719,13.2016667 L151.070587,11.0383333 L150.89443,11.1833333 C150.902818,11.2616667 150.914562,11.325 150.914562,11.38 C150.914562,11.5266667 150.855843,11.6666667 150.746793,11.79 C150.637744,11.92 150.439777,12.0766667 150.167992,12.26 C149.399612,12.7633333 148.584256,13.0166667 147.728636,13.0166667 C146.715314,13.0166667 145.898281,12.7216667 145.299347,12.1283333 C144.591364,11.4383333 144.227306,10.5366667 144.227306,9.42 C144.227306,8.30333333 144.591364,7.40166667 145.299347,6.70833333 C145.898281,6.12 146.715314,5.82666667 147.728636,5.82666667 C148.584256,5.82666667 149.399612,6.08 150.167992,6.585 C150.439777,6.77166667 150.637744,6.92333333 150.746793,7.05166667 C150.855843,7.185 150.914562,7.32 150.914562,7.46833333 C150.914562,7.52666667 150.902818,7.59333333 150.89443,7.67333333 L151.070587,7.81166667 L151.070587,7.81166667 Z M104.595331,13.1483333 L102.879058,10.2633333 C104.482926,9.97666667 105.28486,8.99333333 105.28486,7.31333333 C105.28486,6.82 105.204331,6.35833333 105.043273,5.925 C104.877182,5.475 104.620496,5.12333333 104.281603,4.86333333 C103.988008,4.635 103.640727,4.47666667 103.249826,4.38333333 C102.988107,4.32666667 102.671025,4.28833333 102.296901,4.26666667 L96.1163058,4.26666667 L96.1163058,4.48 C96.2672975,4.52833333 96.371314,4.59666667 96.4300331,4.68 C96.4904298,4.76 96.5189504,4.88 96.5189504,5.035 L96.5189504,13.8166667 C96.5189504,13.9666667 96.4904298,14.0816667 96.4300331,14.165 C96.371314,14.245 96.2672975,14.3133333 96.1163058,14.3616667 L96.1163058,14.58 L98.8542893,14.58 L98.8542893,14.3616667 C98.7083306,14.3133333 98.604314,14.2516667 98.5439174,14.165 C98.481843,14.0816667 98.4499669,13.9666667 98.4499669,13.81 L98.4499669,10.3483333 L100.81886,10.3483333 L102.615661,13.425 C102.818661,13.7766667 102.919322,13.9933333 102.919322,14.085 C102.919322,14.23 102.81195,14.3233333 102.58714,14.3616667 L102.58714,14.58 L105.774744,14.58 L105.774744,14.3616667 C105.571744,14.345 105.398942,14.2666667 105.259694,14.1216667 C105.118769,13.98 104.900669,13.65 104.595331,13.1483333 L104.595331,13.1483333 Z M102.362331,8.61333333 C102.18114,8.645 101.870769,8.66333333 101.42786,8.66333333 L98.4499669,8.66333333 L98.4499669,5.94166667 L101.42786,5.94166667 C101.877479,5.94166667 102.192884,5.95333333 102.365686,5.98333333 C102.538488,6.01 102.702901,6.07333333 102.860603,6.17666667 C103.18943,6.385 103.350488,6.75833333 103.350488,7.30166667 C103.350488,7.845 103.18943,8.22 102.860603,8.42666667 C102.709612,8.52166667 102.543521,8.58333333 102.362331,8.61333333 L102.362331,8.61333333 Z M126.73743,12.7933333 C126.658579,12.865 126.561273,12.8983333 126.430413,12.8983333 L120.726281,12.8983333 L120.726281,10.0366667 L124.326595,10.0366667 C124.454099,10.0366667 124.55476,10.0733333 124.623545,10.1466667 C124.702397,10.2216667 124.75105,10.3483333 124.799702,10.5216667 L124.995992,10.5216667 L124.995992,7.91666667 L124.799702,7.91666667 C124.75105,8.09833333 124.702397,8.22666667 124.623545,8.295 C124.55476,8.36833333 124.454099,8.40166667 124.326595,8.40166667 L120.726281,8.40166667 L120.726281,5.94166667 L126.282777,5.94166667 C126.422025,5.94166667 126.521008,5.97666667 126.588116,6.05166667 C126.658579,6.12 126.71562,6.24666667 126.755884,6.42666667 L126.96224,6.42666667 L126.96224,4.26666667 L118.390942,4.26666667 L118.390942,4.48 C118.541934,4.52833333 118.64595,4.59666667 118.704669,4.68 C118.765066,4.76 118.793587,4.88 118.793587,5.035 L118.793587,13.8066667 C118.793587,13.9616667 118.765066,14.0816667 118.704669,14.165 C118.64595,14.245 118.541934,14.3133333 118.390942,14.3616667 L118.390942,14.58 L127.101488,14.58 L127.101488,12.415 L126.903521,12.415 C126.85319,12.595 126.806215,12.7216667 126.73743,12.7933333 L126.73743,12.7933333 Z M114.21686,4.48 C114.366174,4.52833333 114.473545,4.59666667 114.532264,4.68 C114.590983,4.76 114.621182,4.875 114.621182,5.025 L114.621182,11.1816667 L109.727372,5.23166667 C109.608256,5.085 109.544504,4.95333333 109.544504,4.82833333 C109.544504,4.65 109.636777,4.535 109.821322,4.48 L109.821322,4.26666667 L106.835041,4.26666667 L106.835041,4.48 C106.986033,4.52833333 107.091727,4.59666667 107.152124,4.68 C107.209165,4.76 107.239364,4.875 107.239364,5.025 L107.239364,13.8066667 C107.239364,13.9616667 107.209165,14.0816667 107.152124,14.165 C107.091727,14.245 106.986033,14.3133333 106.835041,14.3616667 L106.835041,14.58 L109.401901,14.58 L109.401901,14.3616667 C109.250909,14.3133333 109.145215,14.245 109.084818,14.165 C109.029455,14.0816667 108.997579,13.9616667 108.997579,13.8066667 L108.997579,7.50333333 L113.97024,13.5033333 C114.17995,13.7583333 114.285645,13.935 114.285645,14.0333333 C114.285645,14.2083333 114.196727,14.3133333 114.015537,14.3616667 L114.015537,14.58 L116.783719,14.58 L116.783719,14.3616667 C116.63105,14.3133333 116.527033,14.245 116.468314,14.165 C116.407917,14.0816667 116.377719,13.9616667 116.377719,13.8066667 L116.377719,5.025 C116.377719,4.875 116.407917,4.76 116.468314,4.68 C116.527033,4.59666667 116.63105,4.52833333 116.783719,4.48 L116.783719,4.26666667 L114.21686,4.26666667 L114.21686,4.48 L114.21686,4.48 Z M136.951182,13.1483333 L135.231554,10.2633333 C136.833744,9.97666667 137.640711,8.99333333 137.640711,7.31333333 C137.640711,6.82 137.56186,6.35833333 137.395769,5.925 C137.226322,5.475 136.98138,5.12333333 136.637455,4.86333333 C136.340504,4.635 135.999934,4.47666667 135.605678,4.38333333 C135.348992,4.32666667 135.025198,4.28833333 134.651074,4.26666667 L128.465446,4.26666667 L128.465446,4.48 C128.61476,4.52833333 128.722132,4.59666667 128.782529,4.68 C128.83957,4.76 128.871446,4.88 128.871446,5.035 L128.871446,13.8166667 C128.871446,13.9666667 128.83957,14.0816667 128.782529,14.165 C128.722132,14.245 128.61476,14.3133333 128.465446,14.3616667 L128.465446,14.58 L131.211818,14.58 L131.211818,14.3616667 C131.062504,14.3133333 130.955132,14.2516667 130.896413,14.165 C130.836017,14.0816667 130.805818,13.9666667 130.805818,13.81 L130.805818,10.3483333 L133.176388,10.3483333 L134.966479,13.425 C135.172835,13.7766667 135.27014,13.9933333 135.27014,14.085 C135.27014,14.23 135.164446,14.3233333 134.946347,14.3616667 L134.946347,14.58 L138.132273,14.58 L138.132273,14.3616667 C137.925917,14.345 137.748083,14.2666667 137.610512,14.1216667 C137.471264,13.98 137.246455,13.65 136.951182,13.1483333 L136.951182,13.1483333 Z M134.709793,8.61333333 C134.533636,8.645 134.218231,8.66333333 133.787066,8.66333333 L130.805818,8.66333333 L130.805818,5.94166667 L133.787066,5.94166667 C134.228298,5.94166667 134.542025,5.95333333 134.71986,5.98333333 C134.897694,6.01 135.053719,6.07333333 135.211421,6.17666667 C135.535215,6.385 135.704661,6.75833333 135.704661,7.30166667 C135.704661,7.845 135.535215,8.22 135.211421,8.42666667 C135.063785,8.52166667 134.897694,8.58333333 134.709793,8.61333333 L134.709793,8.61333333 Z M52.9595124,4.48 C53.1742562,4.50333333 53.2833058,4.62166667 53.2833058,4.82833333 C53.2833058,4.93333333 53.2279421,5.105 53.1205702,5.33833333 L50.6711488,10.5766667 L48.2519256,5.24666667 C48.1948843,5.11333333 48.164686,4.99666667 48.164686,4.89666667 C48.164686,4.68 48.2653471,4.54166667 48.4683471,4.48 L48.4683471,4.26666667 L45.0794215,4.26666667 L45.0794215,4.48 C45.2287355,4.52833333 45.3344298,4.59666667 45.3931488,4.68 C45.4518678,4.76 45.4787107,4.875 45.4787107,5.025 L45.4787107,13.8066667 C45.4787107,13.9616667 45.4518678,14.0816667 45.3931488,14.165 C45.3344298,14.245 45.2287355,14.3133333 45.0794215,14.3616667 L45.0794215,14.58 L47.6446033,14.58 L47.6446033,14.3616667 C47.4936116,14.31 47.3862397,14.2416667 47.3275207,14.1616667 C47.2688017,14.0816667 47.240281,13.9616667 47.240281,13.805 L47.240281,7.40166667 L50.5084132,14.58 L50.5184793,14.58 L53.9577355,7.40166667 L53.9577355,13.805 C53.9577355,13.9616667 53.9292149,14.0816667 53.8654628,14.165 C53.8067438,14.2516667 53.7027273,14.3133333 53.5550909,14.3616667 L53.5550909,14.58 L56.2947521,14.58 L56.2947521,14.3616667 C56.1420826,14.3133333 56.0363884,14.245 55.9793471,14.165 C55.9189504,14.0816667 55.8921074,13.9616667 55.8921074,13.8066667 L55.8921074,5.025 C55.8921074,4.875 55.9189504,4.76 55.9793471,4.68 C56.0363884,4.59666667 56.1420826,4.52833333 56.2947521,4.48 L56.2947521,4.26666667 L52.9595124,4.26666667 L52.9595124,4.48 L52.9595124,4.48 Z M66.2249752,12.7933333 C66.1545124,12.865 66.0588843,12.8983333 65.9263471,12.8983333 L60.2238926,12.8983333 L60.2238926,10.0366667 L63.8225289,10.0366667 C63.9517107,10.0366667 64.0540496,10.0733333 64.1194793,10.1466667 C64.1899421,10.2216667 64.2469835,10.3483333 64.2889256,10.5216667 L64.4936033,10.5216667 L64.4936033,7.91666667 L64.2889256,7.91666667 C64.2469835,8.09833333 64.1899421,8.22666667 64.1194793,8.295 C64.0540496,8.36833333 63.9517107,8.40166667 63.8225289,8.40166667 L60.2238926,8.40166667 L60.2238926,5.94166667 L65.7820661,5.94166667 C65.9129256,5.94166667 66.0135868,5.97666667 66.0823719,6.05166667 C66.1494793,6.12 66.2065207,6.24666667 66.2501405,6.42666667 L66.4514628,6.42666667 L66.4514628,4.26666667 L57.886876,4.26666667 L57.886876,4.48 C58.0395455,4.52833333 58.1452397,4.59666667 58.2039587,4.68 C58.2643554,4.76 58.2911983,4.88 58.2911983,5.035 L58.2911983,13.8066667 C58.2911983,13.9616667 58.2643554,14.0816667 58.2039587,14.165 C58.1452397,14.245 58.0395455,14.3133333 57.886876,14.3616667 L57.886876,14.58 L66.5990992,14.58 L66.5990992,12.415 L66.3960992,12.415 C66.3524793,12.595 66.295438,12.7216667 66.2249752,12.7933333 L66.2249752,12.7933333 Z M94.5527025,13.42 L91.1872645,5.42666667 C91.1050579,5.24 91.0647934,5.075 91.0647934,4.92666667 C91.0647934,4.71333333 91.1922975,4.56333333 91.4473058,4.48 L91.4473058,4.26666667 L88.3133884,4.26666667 L88.3133884,4.48 C88.5633636,4.58 88.6875124,4.75166667 88.6875124,4.97833333 C88.6875124,5.13166667 88.6388595,5.335 88.534843,5.58666667 L85.2851653,13.5583333 C85.169405,13.85 85.0653884,14.05 84.9747934,14.1483333 C84.885876,14.2516667 84.7533388,14.3233333 84.5822149,14.3616667 L84.5822149,14.58 L87.5231983,14.58 L87.5231983,14.3616667 C87.2329587,14.275 87.0886777,14.1216667 87.0886777,13.8916667 C87.0886777,13.7766667 87.1306198,13.61 87.2094711,13.4083333 L87.8184711,11.9283333 L91.7761322,11.9283333 L92.3951983,13.4083333 C92.482438,13.6166667 92.5243802,13.7766667 92.5243802,13.8866667 C92.5243802,14.1466667 92.3817769,14.3066667 92.0915372,14.3616667 L92.0915372,14.58 L95.3647025,14.58 L95.3647025,14.3616667 C95.1835124,14.3233333 95.0375537,14.2383333 94.9301818,14.115 C94.8211322,13.99 94.6969835,13.7583333 94.5527025,13.42 L94.5527025,13.42 Z M88.3872066,10.5216667 L89.8149174,6.88166667 L91.2241736,10.5216667 L88.3872066,10.5216667 L88.3872066,10.5216667 Z M82.0908512,13.8983333 C82.0908512,13.78 82.1512479,13.53 82.2720413,13.17 L84.8053471,5.52 C84.939562,5.12 85.0469339,4.86333333 85.1308182,4.75333333 C85.2130248,4.63833333 85.3640165,4.55166667 85.5787603,4.48 L85.5787603,4.26666667 L82.535438,4.26666667 L82.535438,4.48 C82.8458099,4.55166667 83.000157,4.69666667 83.000157,4.91833333 C83.000157,5.04833333 82.9531818,5.25333333 82.8642645,5.52 L81.1228264,10.9116667 L79.3763554,5.42666667 C79.3025372,5.20666667 79.2639504,5.05166667 79.2639504,4.97333333 C79.2639504,4.73333333 79.4115868,4.57 79.7085372,4.48 L79.7085372,4.26666667 L76.4588595,4.26666667 L76.4588595,4.48 C76.7507769,4.54833333 76.8950579,4.69333333 76.8950579,4.92666667 C76.8950579,5.00333333 76.851438,5.16166667 76.7692314,5.4 L74.8667355,10.9116667 L73.1101983,5.42666667 C73.0397355,5.21333333 73.0061818,5.04333333 73.0061818,4.92666667 C73.0061818,4.69833333 73.1437521,4.55166667 73.4138595,4.48 L73.4138595,4.26666667 L70.3537603,4.26666667 L70.3537603,4.48 C70.5466942,4.52666667 70.6960083,4.615 70.7966694,4.75166667 C70.8990083,4.88333333 71.0130909,5.14 71.135562,5.52 L73.6688678,13.17 C73.7913388,13.5433333 73.8517355,13.77 73.8517355,13.8433333 C73.8517355,14.1233333 73.7040992,14.2933333 73.4172149,14.3616667 L73.4172149,14.58 L76.269281,14.58 L76.269281,14.3616667 C75.948843,14.2666667 75.7877851,14.1016667 75.7877851,13.8683333 C75.7877851,13.7866667 75.8481818,13.595 75.9656198,13.2933333 L77.9922645,7.23333333 L79.928314,13.17 C80.0625289,13.5266667 80.1279587,13.7583333 80.1279587,13.8533333 C80.1279587,14.1366667 79.9769669,14.3066667 79.6749835,14.3616667 L79.6749835,14.58 L82.5505372,14.58 L82.5505372,14.3616667 C82.2435207,14.3 82.0908512,14.1466667 82.0908512,13.8983333 L82.0908512,13.8983333 Z" id="Fill-2" fill="#08417A" sketch:type="MSShapeGroup"></path>
                <path d="M194.301198,41.8883333 L31.8760331,41.8883333 L31.8827438,54.6083333 C31.8827438,54.6083333 65.7870992,43.025 194.301198,44.1683333 L194.301198,41.8883333" id="Fill-3" fill="#A7A8A8" sketch:type="MSShapeGroup"></path>
                <path d="M31.9011983,20.205 L38.9088926,20.205 C42.8380331,20.205 44.750595,21.8133333 44.750595,24.5566667 C44.750595,27.51 43.1316281,28.5916667 41.2727521,29.04 L41.2727521,29.0916667 C43.5812479,29.4883333 45.0425124,30.965 45.0425124,33.4433333 C45.0425124,37.0833333 42.5461157,38.6133333 39.0162645,38.6133333 L31.9011983,38.6133333 L31.9011983,20.205 L31.9011983,20.205 Z M37.6623719,27.5616667 C38.8837273,27.5616667 39.9725455,27.09 39.9725455,25.5316667 C39.9725455,24.16 39.120281,23.5266667 37.9542893,23.5266667 L36.6809256,23.5266667 L36.6809256,27.5616667 L37.6623719,27.5616667 L37.6623719,27.5616667 Z M38.0079752,35.185 C39.440719,35.185 40.2644628,34.4733333 40.2644628,33.075 C40.2644628,31.7033333 39.5212479,30.885 38.2193636,30.885 L36.6809256,30.885 L36.6809256,35.185 L38.0079752,35.185 L38.0079752,35.185 Z" id="Fill-4" fill="#08417A" sketch:type="MSShapeGroup"></path>
                <path d="M59.5897273,36.345 C59.5897273,37.3733333 59.6685785,38.2433333 59.7474298,38.6133333 L55.2629752,38.6133333 C55.1824463,38.06 55.1556033,37.0833333 55.1556033,36.3183333 L55.1019174,36.3183333 C54.8385207,37.055 53.907405,38.9283333 51.2012975,38.9283333 C48.837438,38.9283333 47.0070826,37.5333333 47.0070826,34.4983333 L47.0070826,24.8733333 L51.7851322,24.8733333 L51.7851322,33.1283333 C51.7851322,34.4466667 52.1827438,35.0783333 53.1390248,35.0783333 C54.5197603,35.0783333 54.8116777,33.8416667 54.8116777,32.8116667 L54.8116777,24.8733333 L59.5897273,24.8733333 L59.5897273,36.345" id="Fill-5" fill="#08417A" sketch:type="MSShapeGroup"></path>
                <path d="M61.6331488,34.63 C62.3763636,35 63.570876,35.605 65.2435289,35.605 C66.5454132,35.605 67.2080992,35.2633333 67.2080992,34.63 C67.2080992,34.1566667 66.8356529,33.8933333 65.6679835,33.47 L64.2083967,32.9433333 C62.005595,32.1516667 61.3680744,30.805 61.3680744,29.0666667 C61.3680744,26.64 62.9333554,24.5566667 67.1275702,24.5566667 C68.5636694,24.5566667 69.9695702,24.8466667 70.9778595,25.1883333 L70.8168017,28.6166667 C69.9427273,28.2233333 68.6425207,27.7733333 67.4211653,27.7733333 C66.4917273,27.7733333 65.7216694,28.0366667 65.7216694,28.7766667 C65.7216694,29.2516667 66.1729669,29.5666667 67.3137934,29.9883333 L68.907595,30.57 C70.6322562,31.2033333 71.6673884,32.02 71.6673884,34.42 C71.6673884,37.2666667 69.8370331,38.9283333 65.7485124,38.9283333 C64.2352397,38.9283333 62.2975124,38.5866667 61.5257769,38.2983333 L61.6331488,34.63" id="Fill-6" fill="#08417A" sketch:type="MSShapeGroup"></path>
                <path d="M73.5262645,18.835 L78.304314,18.835 L78.304314,22.79 L73.5262645,22.79 L73.5262645,18.835 Z M73.5262645,24.8733333 L78.304314,24.8733333 L78.304314,38.6133333 L73.5262645,38.6133333 L73.5262645,24.8733333 Z" id="Fill-7" fill="#08417A" sketch:type="MSShapeGroup"></path>
                <path d="M80.7738678,27.67 C80.7738678,26.64 80.6933388,25.505 80.6144876,24.8733333 L85.0989421,24.8733333 C85.1794711,25.4266667 85.206314,26.4033333 85.206314,27.1683333 L85.2583223,27.1683333 C85.5233967,26.4283333 86.4528347,24.5566667 89.1606198,24.5566667 C91.5244793,24.5566667 93.3548347,25.9533333 93.3548347,28.9883333 L93.3548347,38.6133333 L88.5767851,38.6133333 L88.5767851,30.3583333 C88.5767851,29.04 88.1791736,28.4066667 87.2765785,28.4066667 C86.0803884,28.4066667 85.5502397,29.645 85.5502397,31.0716667 L85.5502397,38.6133333 L80.7738678,38.6133333 L80.7738678,27.67" id="Fill-8" fill="#08417A" sketch:type="MSShapeGroup"></path>
                <path d="M99.5941488,33.0483333 C99.726686,35.2633333 101.265124,35.9233333 103.045149,35.9233333 C104.345355,35.9233333 105.912314,35.3416667 107.079983,34.8416667 L107.187355,38.1383333 C106.044851,38.5066667 104.291669,38.9033333 102.35562,38.9283333 C96.7538264,38.955 95.1348595,35.2116667 95.1348595,31.6766667 C95.1348595,27.9066667 97.3913471,24.5566667 101.558719,24.5566667 C105.885471,24.5566667 107.93057,27.9583333 107.93057,31.7033333 L107.93057,33.0483333 L99.5941488,33.0483333 L99.5941488,33.0483333 Z M103.575298,30.57 L103.575298,30.175 C103.575298,28.3283333 103.071992,27.4583333 101.63757,27.4583333 C100.283678,27.4583333 99.4867769,28.6716667 99.4867769,30.57 L103.575298,30.57 L103.575298,30.57 Z" id="Fill-9" fill="#08417A" sketch:type="MSShapeGroup"></path>
                <path d="M109.521017,34.63 C110.265909,35 111.462099,35.605 113.133074,35.605 C114.433281,35.605 115.097645,35.2633333 115.097645,34.63 C115.097645,34.1566667 114.725198,33.8933333 113.557529,33.47 L112.097942,32.9433333 C109.89514,32.1516667 109.25762,30.805 109.25762,29.0666667 C109.25762,26.64 110.822901,24.5566667 115.017116,24.5566667 C116.44986,24.5566667 117.857438,24.8466667 118.865727,25.1883333 L118.708025,28.6166667 C117.830595,28.2233333 116.532066,27.7733333 115.309033,27.7733333 C114.379595,27.7733333 113.609537,28.0366667 113.609537,28.7766667 C113.609537,29.2516667 114.060835,29.5666667 115.203339,29.9883333 L116.79714,30.57 C118.520124,31.2033333 119.556934,32.02 119.556934,34.42 C119.556934,37.2666667 117.724901,38.9283333 113.63638,38.9283333 C112.124785,38.9283333 110.187058,38.5866667 109.417,38.2983333 L109.521017,34.63" id="Fill-10" fill="#08417A" sketch:type="MSShapeGroup"></path>
                <path d="M121.016521,34.63 C121.761413,35 122.955926,35.605 124.626901,35.605 C125.928785,35.605 126.591471,35.2633333 126.591471,34.63 C126.591471,34.1566667 126.220702,33.8933333 125.053033,33.47 L123.591769,32.9433333 C121.388967,32.1516667 120.753124,30.805 120.753124,29.0666667 C120.753124,26.64 122.316727,24.5566667 126.51262,24.5566667 C127.945364,24.5566667 129.351264,24.8466667 130.362909,25.1883333 L130.201851,28.6166667 C129.326099,28.2233333 128.025893,27.7733333 126.80286,27.7733333 C125.875099,27.7733333 125.103364,28.0366667 125.103364,28.7766667 C125.103364,29.2516667 125.556339,29.5666667 126.698843,29.9883333 L128.290967,30.57 C130.017306,31.2033333 131.05076,32.02 131.05076,34.42 C131.05076,37.2666667 129.220405,38.9283333 125.131884,38.9283333 C123.618612,38.9283333 121.679207,38.5866667 120.909149,38.2983333 L121.016521,34.63" id="Fill-11" fill="#08417A" sketch:type="MSShapeGroup"></path>
                <path d="M149.924727,38.2183333 C148.359446,38.6933333 146.767322,38.9283333 145.359744,38.9283333 C139.969339,38.9283333 136.120727,35.7383333 136.120727,29.2766667 C136.120727,23.845 139.252967,19.8883333 145.332901,19.8883333 C147.747091,19.8883333 149.367736,20.5483333 149.819033,20.7333333 L149.553959,24.795 C148.970124,24.4516667 147.50886,23.7383333 145.943579,23.7383333 C142.757653,23.7383333 141.271223,25.7983333 141.271223,29.3816667 C141.271223,32.5483333 143.022727,34.9733333 146.156645,34.9733333 C147.933314,34.9733333 149.235198,34.2616667 149.711661,33.945 L149.924727,38.2183333" id="Fill-12" fill="#08417A" sketch:type="MSShapeGroup"></path>
                <path d="M151.75676,18.835 L156.53481,18.835 L156.53481,38.6133333 L151.75676,38.6133333 L151.75676,18.835 Z" id="Fill-13" fill="#08417A" sketch:type="MSShapeGroup"></path>
                <path d="M170.922645,35.58 C170.922645,36.6866667 171.003174,37.7966667 171.082025,38.6133333 L166.834124,38.6133333 C166.780438,37.98 166.676421,37.3466667 166.676421,36.715 C165.294008,38.2433333 164.206868,38.9283333 162.534215,38.9283333 C160.093182,38.9283333 158.338322,37.1866667 158.338322,34.5516667 C158.338322,31.4933333 160.648496,29.8566667 165.453388,29.8566667 L166.676421,29.8566667 L166.676421,29.435 C166.676421,28.565 165.958372,27.5616667 164.074331,27.5616667 C162.587901,27.5616667 161.099793,28.2233333 160.093182,28.8566667 L159.932124,25.4533333 C161.074628,25.0333333 162.799289,24.5566667 165.109463,24.5566667 C169.968041,24.5566667 170.922645,26.8266667 170.922645,29.645 L170.922645,35.58 L170.922645,35.58 Z M166.676421,31.9683333 L166.117752,31.9683333 C163.993802,31.9683333 162.587901,32.6266667 162.587901,34.235 C162.587901,35.4483333 163.250587,35.9233333 164.233711,35.9233333 C166.436512,35.9233333 166.676421,33.7083333 166.676421,32.415 L166.676421,31.9683333 L166.676421,31.9683333 Z" id="Fill-14" fill="#08417A" sketch:type="MSShapeGroup"></path>
                <path d="M172.966066,34.63 C173.710959,35 174.905471,35.605 176.578124,35.605 C177.878331,35.605 178.541017,35.2633333 178.541017,34.63 C178.541017,34.1566667 178.170248,33.8933333 177.000901,33.47 L175.541314,32.9433333 C173.34019,32.1516667 172.700992,30.805 172.700992,29.0666667 C172.700992,26.64 174.269628,24.5566667 178.462165,24.5566667 C179.894909,24.5566667 181.304165,24.8466667 182.312455,25.1883333 L182.153074,28.6166667 C181.275645,28.2233333 179.975438,27.7733333 178.752405,27.7733333 C177.824645,27.7733333 177.056264,28.0366667 177.056264,28.7766667 C177.056264,29.2516667 177.505884,29.5666667 178.646711,29.9883333 L180.240512,30.57 C181.966851,31.2033333 183.001983,32.02 183.001983,34.42 C183.001983,37.2666667 181.16995,38.9283333 177.08143,38.9283333 C175.569835,38.9283333 173.632107,38.5866667 172.86205,38.2983333 L172.966066,34.63" id="Fill-15" fill="#08417A" sketch:type="MSShapeGroup"></path>
                <path d="M184.46157,34.63 C185.203107,35 186.399298,35.605 188.07195,35.605 C189.370479,35.605 190.036521,35.2633333 190.036521,34.63 C190.036521,34.1566667 189.664074,33.8933333 188.496405,33.47 L187.036818,32.9433333 C184.832339,32.1516667 184.196496,30.805 184.196496,29.0666667 C184.196496,26.64 185.761777,24.5566667 189.957669,24.5566667 C191.390413,24.5566667 192.794636,24.8466667 193.804603,25.1883333 L193.645223,28.6166667 C192.771149,28.2233333 191.469264,27.7733333 190.247909,27.7733333 C189.318471,27.7733333 188.548413,28.0366667 188.548413,28.7766667 C188.548413,29.2516667 189.001388,29.5666667 190.142215,29.9883333 L191.736017,30.57 C193.459,31.2033333 194.49581,32.02 194.49581,34.42 C194.49581,37.2666667 192.663777,38.9283333 188.575256,38.9283333 C187.063661,38.9283333 185.125934,38.5866667 184.354198,38.2983333 L184.46157,34.63" id="Fill-16" fill="#08417A" sketch:type="MSShapeGroup"></path>
                <path d="M198.346099,19.1666667 C200.275438,19.1666667 201.894405,20.7233333 201.894405,22.7083333 C201.894405,24.6416667 200.308992,26.2333333 198.346099,26.2333333 C196.381529,26.2333333 194.796116,24.6416667 194.796116,22.7083333 C194.796116,20.7233333 196.398306,19.1666667 198.346099,19.1666667 L198.346099,19.1666667 Z M198.346099,25.5 C199.84595,25.5 201.154545,24.1983333 201.154545,22.7083333 C201.154545,21.185 199.84595,19.9016667 198.346099,19.9016667 C196.863025,19.9016667 195.537653,21.185 195.537653,22.7083333 C195.537653,24.1983333 196.847926,25.5 198.346099,25.5 L198.346099,25.5 Z M197.795818,24.5916667 L196.847926,24.5916667 L196.847926,20.8083333 L198.62124,20.8083333 C198.84605,20.8083333 200.067405,20.8083333 200.067405,21.94 C200.067405,22.6583333 199.552355,22.8633333 199.361099,22.9483333 L200.067405,24.5916667 L199.07086,24.5916667 L198.465215,23.155 L197.795818,23.155 L197.795818,24.5916667 L197.795818,24.5916667 Z M197.795818,22.4516667 L198.362876,22.4516667 C198.638017,22.4516667 199.085959,22.385 199.085959,21.92 C199.085959,21.6983333 198.931612,21.4933333 198.431661,21.4933333 L197.795818,21.4933333 L197.795818,22.4516667 L197.795818,22.4516667 Z" id="Fill-17" fill="#08417A" sketch:type="MSShapeGroup"></path>
            </g>
        </g>
    </g>
</svg>