<?xml version="1.0" encoding="UTF-8" standalone="no"?>
<svg width="354px" height="118px" viewBox="0 0 354 118" version="1.1" xmlns="http://www.w3.org/2000/svg" xmlns:xlink="http://www.w3.org/1999/xlink" xmlns:sketch="http://www.bohemiancoding.com/sketch/ns">
    <!-- Generator: Sketch 3.2.2 (9983) - http://www.bohemiancoding.com/sketch -->
    <title>plans</title>
    <desc>Created with Sketch.</desc>
    <defs></defs>
    <g id="Page" stroke="none" stroke-width="1" fill="none" fill-rule="evenodd" sketch:type="MSPage">
        <g id="plans" sketch:type="MSArtboardGroup" fill="#FFFFFF">
            <path d="M295,38 C288,43 277,44 277,44 L277,56 C277,74 295,82 295,82 C295,82 313,74 313,56 L313,44 C313,44 302,43 295,38 L295,38 Z M293.014,68.107 L285.653,60.745 L288.975,57.423 L293.014,61.461 L304.053,50.423 L307.375,53.745 L293.014,68.107 L293.014,68.107 Z" id="Prevent" sketch:type="MSShapeGroup"></path>
            <g id="Prepare" sketch:type="MSLayerGroup" transform="translate(153.000000, 35.000000)">
                <path d="M48.752,10.755 L48.752,0.755 L38.752,0.755 L42.34,4.343 L37.409,9.273 C33.961,6.451 29.555,4.755 24.752,4.755 C19.949,4.755 15.543,6.451 12.095,9.273 L7.164,4.343 L10.752,0.755 L0.752,0.755 L0.752,10.755 L4.34,7.166 L9.271,12.098 C6.448,15.545 4.752,19.951 4.752,24.755 C4.752,29.559 6.448,33.965 9.271,37.412 L4.34,42.344 L0.752,38.755 L0.752,48.755 L10.752,48.755 L7.164,45.167 L12.095,40.236 C15.543,43.059 19.949,44.755 24.752,44.755 C29.555,44.755 33.961,43.059 37.409,40.236 L42.34,45.167 L38.752,48.755 L48.752,48.755 L48.752,38.755 L45.164,42.343 L40.233,37.412 C43.056,33.964 44.752,29.559 44.752,24.755 C44.752,19.951 43.056,15.546 40.233,12.098 L45.164,7.167 L48.752,10.755 L48.752,10.755 Z M41.002,24.755 C41.002,33.728 33.726,41.005 24.752,41.005 C15.778,41.005 8.502,33.728 8.502,24.755 C8.502,15.781 15.778,8.505 24.752,8.505 C33.726,8.505 41.002,15.781 41.002,24.755 L41.002,24.755 Z" id="Fill-1" sketch:type="MSShapeGroup"></path>
                <path d="M16.618,22.639 L13.296,25.961 L20.657,33.323 L35.019,18.961 L31.696,15.639 L20.657,26.677 L16.618,22.639" id="Fill-2" sketch:type="MSShapeGroup"></path>
            </g>
            <g id="Plan" sketch:type="MSLayerGroup" transform="translate(40.000000, 34.000000)">
                <path d="M23.032,4 C23.032,1.791 21.241,0 19.032,0 C16.823,0 15.032,1.791 15.032,4 L11.032,4 L11.032,8 C11.032,9.105 11.928,10 13.032,10 L25.032,10 C26.137,10 27.032,9.105 27.032,8 L27.032,4 L23.032,4 L23.032,4 Z M19.032,6.25 C17.79,6.25 16.782,5.243 16.782,4 C16.782,2.757 17.79,1.75 19.032,1.75 C20.274,1.75 21.282,2.757 21.282,4 C21.282,5.243 20.274,6.25 19.032,6.25 L19.032,6.25 Z" id="Fill-1" sketch:type="MSShapeGroup"></path>
                <path d="M11.993,21.639 L8.671,24.961 L16.032,32.323 L30.394,17.961 L27.071,14.639 L16.032,25.677 L11.993,21.639" id="Fill-2" sketch:type="MSShapeGroup"></path>
                <path d="M36.032,4 L29.032,4 L29.032,8 L34.032,8 L34.032,34 L34,36 L26.063,43.969 L24.032,44 L4.032,44 L4.032,8 L9.032,8 L9.032,4 L2.032,4 C0.928,4 0.032,4.895 0.032,6 L0.032,46 C0.032,47.106 0.928,48 2.032,48 L36.032,48 C37.137,48 38.032,47.106 38.032,46 L38.032,6 C38.032,4.895 37.137,4 36.032,4" id="Fill-3" sketch:type="MSShapeGroup"></path>
            </g>
        </g>
    </g>
</svg>